<?xml version="1.0" standalone="no"?>
<!DOCTYPE svg PUBLIC "-//W3C//DTD SVG 20010904//EN"
 "http://www.w3.org/TR/2001/REC-SVG-20010904/DTD/svg10.dtd">
<svg version="1.0" xmlns="http://www.w3.org/2000/svg"
 width="512.000000pt" height="512.000000pt" viewBox="0 0 512.000000 512.000000"
 preserveAspectRatio="xMidYMid meet">
<metadata>
Created by potrace 1.11, written by Peter Selinger 2001-2013
</metadata>
<g transform="translate(0.000000,512.000000) scale(0.100000,-0.100000)"
fill="#000000" stroke="none">
<path d="M2279 5104 c-313 -41 -582 -118 -814 -232 -44 -21 -84 -41 -90 -43
-5 -2 -39 -21 -75 -41 l-66 -37 -207 -1 c-178 -1 -216 -4 -265 -21 -109 -38
-201 -127 -238 -234 -13 -38 -18 -92 -21 -233 l-3 -184 -66 -95 c-36 -52 -68
-102 -71 -111 -4 -10 -14 -29 -24 -43 -33 -47 -121 -232 -165 -345 -119 -309
-169 -583 -168 -929 0 -93 3 -199 7 -235 4 -36 9 -85 12 -110 14 -122 75 -372
124 -506 83 -226 157 -375 287 -569 328 -491 810 -851 1369 -1023 106 -33 294
-76 385 -87 30 -4 64 -9 75 -12 43 -10 475 -12 555 -3 272 32 488 87 713 181
697 292 1215 848 1457 1567 31 93 59 198 67 247 2 17 8 44 13 60 35 113 58
559 37 735 -4 36 -9 88 -12 115 -3 28 -10 68 -15 90 -5 22 -14 67 -20 100 -48
257 -203 623 -369 869 l-69 103 -4 189 c-4 155 -9 197 -24 236 -43 105 -118
180 -227 224 -47 20 -72 22 -264 23 l-213 2 -153 79 c-264 137 -575 236 -832
266 -27 3 -77 9 -110 14 -93 12 -409 9 -516 -6z"/>
</g>
</svg>
